<mxfile host="app.diagrams.net" modified="2021-03-26T05:59:21.482Z" agent="5.0 (Windows NT 10.0; Win64; x64) AppleWebKit/537.36 (KHTML, like Gecko) Chrome/89.0.4389.90 Safari/537.36" etag="gSW5UmY9KMiIBtVfOuLt" version="14.5.1" type="github">
  <diagram id="uOilEJIrIGURmh9ZmMED" name="Page-1">
    <mxGraphModel dx="1422" dy="762" grid="1" gridSize="10" guides="1" tooltips="1" connect="1" arrows="1" fold="1" page="1" pageScale="1" pageWidth="1169" pageHeight="827" math="0" shadow="0">
      <root>
        <mxCell id="0" />
        <mxCell id="1" parent="0" />
        <mxCell id="RPCRJ4VFs7uq23GM1gfV-1" value="" style="group;aspect=fixed;" vertex="1" connectable="0" parent="1">
          <mxGeometry x="40" y="40" width="1040" height="658" as="geometry" />
        </mxCell>
        <mxCell id="RPCRJ4VFs7uq23GM1gfV-2" value="&lt;p style=&quot;margin: 4px 0px 0px ; font-size: 13px&quot;&gt;&lt;i style=&quot;font-size: 13px&quot;&gt;&amp;lt;&amp;lt;Interface&amp;gt;&amp;gt;&lt;/i&gt;&lt;br style=&quot;font-size: 13px&quot;&gt;&lt;b style=&quot;font-size: 13px&quot;&gt;Iterable&lt;/b&gt;&lt;/p&gt;&lt;hr style=&quot;font-size: 13px&quot;&gt;&lt;p style=&quot;text-align: left ; margin: 0px 0px 0px 4px ; font-size: 13px&quot;&gt;&lt;/p&gt;&lt;ul&gt;&lt;li style=&quot;text-align: left&quot;&gt;iterator()&lt;/li&gt;&lt;/ul&gt;&lt;p&gt;&lt;/p&gt;&lt;hr style=&quot;font-size: 13px&quot;&gt;&lt;p style=&quot;text-align: left ; margin: 0px 0px 0px 4px ; font-size: 13px&quot;&gt;&lt;span style=&quot;color: rgb(50 , 50 , 50) ; background-color: rgba(255 , 255 , 255 , 0.01)&quot;&gt;可迭代的，所有的&lt;/span&gt;&lt;span style=&quot;background-color: rgba(255 , 255 , 255 , 0.01) ; color: rgb(50 , 50 , 50)&quot;&gt;集合&lt;/span&gt;&lt;span style=&quot;background-color: rgba(255 , 255 , 255 , 0.01) ; color: rgb(50 , 50 , 50)&quot;&gt;都是可迭代的，迭代就&lt;/span&gt;&lt;span style=&quot;background-color: rgba(255 , 255 , 255 , 0.01) ; color: rgb(50 , 50 , 50)&quot;&gt;是遍历。&lt;/span&gt;&lt;/p&gt;" style="verticalAlign=middle;align=center;overflow=fill;fontSize=13;fontFamily=Helvetica;html=1;gradientDirection=north;shadow=0;glass=0;sketch=0;perimeterSpacing=0;strokeWidth=2;rounded=1;perimeter=rectanglePerimeter;arcSize=6;fillColor=#FFF2CC;whiteSpace=wrap;" vertex="1" parent="RPCRJ4VFs7uq23GM1gfV-1">
          <mxGeometry x="422" y="20" width="165" height="125" as="geometry" />
        </mxCell>
        <mxCell id="RPCRJ4VFs7uq23GM1gfV-3" value="&lt;p style=&quot;margin: 4px 0px 0px ; font-size: 13px&quot;&gt;&lt;i style=&quot;font-size: 13px&quot;&gt;&amp;lt;&amp;lt;Interface&amp;gt;&amp;gt;&lt;/i&gt;&lt;br style=&quot;font-size: 13px&quot;&gt;&lt;b style=&quot;font-size: 13px&quot;&gt;Iterator&lt;/b&gt;&lt;/p&gt;&lt;hr style=&quot;font-size: 13px&quot;&gt;&lt;p style=&quot;text-align: left ; margin: 0px 0px 0px 4px ; font-size: 13px&quot;&gt;&lt;/p&gt;&lt;ul&gt;&lt;li style=&quot;text-align: left&quot;&gt;hasNext()&lt;/li&gt;&lt;li style=&quot;text-align: left&quot;&gt;next()&lt;/li&gt;&lt;li style=&quot;text-align: left&quot;&gt;remove()&lt;/li&gt;&lt;/ul&gt;&lt;p&gt;&lt;/p&gt;&lt;hr style=&quot;font-size: 13px&quot;&gt;&lt;p style=&quot;text-align: left ; margin: 0px 0px 0px 4px ; font-size: 13px&quot;&gt;&lt;span style=&quot;color: rgb(50 , 50 , 50) ; font-family: &amp;#34;arial&amp;#34; ; background-color: rgba(255 , 255 , 255 , 0.01)&quot;&gt;迭代器，集合获取到迭代器&lt;/span&gt;&lt;span style=&quot;background-color: rgba(255 , 255 , 255 , 0.01) ; color: rgb(50 , 50 , 50) ; font-family: &amp;#34;arial&amp;#34;&quot;&gt;之后，可以使用迭代器去遍&lt;/span&gt;&lt;span style=&quot;background-color: rgba(255 , 255 , 255 , 0.01) ; color: rgb(50 , 50 , 50) ; font-family: &amp;#34;arial&amp;#34;&quot;&gt;历集合。&lt;/span&gt;&lt;/p&gt;" style="verticalAlign=middle;align=center;overflow=fill;fontSize=13;fontFamily=Helvetica;html=1;gradientDirection=north;shadow=0;glass=0;sketch=0;perimeterSpacing=0;strokeWidth=2;rounded=1;perimeter=rectanglePerimeter;fillColor=#fff2cc;arcSize=6;whiteSpace=wrap;" vertex="1" parent="RPCRJ4VFs7uq23GM1gfV-1">
          <mxGeometry x="100" y="145" width="200" height="155" as="geometry" />
        </mxCell>
        <mxCell id="RPCRJ4VFs7uq23GM1gfV-4" value="" style="edgeStyle=orthogonalEdgeStyle;rounded=0;orthogonalLoop=1;jettySize=auto;html=1;fontFamily=Helvetica;fontSize=13;strokeWidth=2;" edge="1" parent="RPCRJ4VFs7uq23GM1gfV-1" source="RPCRJ4VFs7uq23GM1gfV-6" target="RPCRJ4VFs7uq23GM1gfV-2">
          <mxGeometry relative="1" as="geometry" />
        </mxCell>
        <mxCell id="RPCRJ4VFs7uq23GM1gfV-5" value="" style="edgeStyle=orthogonalEdgeStyle;rounded=0;orthogonalLoop=1;jettySize=auto;html=1;strokeWidth=2;fontFamily=Helvetica;fontSize=13;" edge="1" parent="RPCRJ4VFs7uq23GM1gfV-1" source="RPCRJ4VFs7uq23GM1gfV-6" target="RPCRJ4VFs7uq23GM1gfV-3">
          <mxGeometry relative="1" as="geometry" />
        </mxCell>
        <mxCell id="RPCRJ4VFs7uq23GM1gfV-6" value="&lt;p style=&quot;margin: 4px 0px 0px ; font-size: 13px&quot;&gt;&lt;i style=&quot;font-size: 13px&quot;&gt;&amp;lt;&amp;lt;Interface&amp;gt;&amp;gt;&lt;/i&gt;&lt;br style=&quot;font-size: 13px&quot;&gt;&lt;b style=&quot;font-size: 13px&quot;&gt;Collection&lt;/b&gt;&lt;/p&gt;&lt;hr style=&quot;font-size: 13px&quot;&gt;&lt;p style=&quot;margin: 0px 0px 0px 4px ; font-size: 13px&quot;&gt;&lt;/p&gt;&lt;p style=&quot;text-align: left ; margin: 0px 0px 0px 4px ; font-size: 13px&quot;&gt;&lt;span style=&quot;color: rgb(50 , 50 , 50) ; font-family: &amp;#34;arial&amp;#34; ; background-color: rgba(255 , 255 , 255 , 0.01)&quot;&gt;只能存储引用类型，并且是单个存储。&lt;/span&gt;&lt;br&gt;&lt;/p&gt;" style="verticalAlign=middle;align=center;overflow=fill;fontSize=13;fontFamily=Helvetica;html=1;gradientDirection=north;shadow=0;glass=0;sketch=0;perimeterSpacing=0;strokeWidth=2;rounded=1;perimeter=rectanglePerimeter;fillColor=#fff2cc;arcSize=6;whiteSpace=wrap;" vertex="1" parent="RPCRJ4VFs7uq23GM1gfV-1">
          <mxGeometry x="392.5" y="187.5" width="225" height="70" as="geometry" />
        </mxCell>
        <mxCell id="RPCRJ4VFs7uq23GM1gfV-7" value="&lt;p style=&quot;margin: 4px 0px 0px; font-size: 13px;&quot;&gt;&lt;i style=&quot;font-size: 13px;&quot;&gt;&amp;lt;&amp;lt;Interface&amp;gt;&amp;gt;&lt;/i&gt;&lt;br style=&quot;font-size: 13px;&quot;&gt;&lt;b style=&quot;font-size: 13px;&quot;&gt;Set&lt;/b&gt;&lt;/p&gt;&lt;hr style=&quot;font-size: 13px;&quot;&gt;&lt;p style=&quot;text-align: left; margin: 0px 0px 0px 4px; font-size: 13px;&quot;&gt;&lt;/p&gt;&lt;p style=&quot;text-align: left; margin: 0px 0px 0px 4px; font-size: 13px;&quot;&gt;&lt;span style=&quot;color: rgb(50, 50, 50); font-family: arial; background-color: rgba(255, 255, 255, 0.01); font-size: 13px;&quot;&gt;存储元素的特点：无有序不可重复，&lt;/span&gt;&lt;span style=&quot;color: rgb(50, 50, 50); font-family: arial; font-size: 13px;&quot;&gt;存进去的时候是这样一个顺序，取出来的时候就不一定是这个顺序取出。&lt;/span&gt;&lt;br style=&quot;font-size: 13px;&quot;&gt;&lt;/p&gt;" style="verticalAlign=middle;align=center;overflow=fill;fontSize=13;fontFamily=Helvetica;html=1;gradientDirection=north;shadow=0;glass=0;sketch=0;perimeterSpacing=0;strokeWidth=2;rounded=1;perimeter=rectanglePerimeter;fillColor=#fff2cc;arcSize=6;whiteSpace=wrap;" vertex="1" parent="RPCRJ4VFs7uq23GM1gfV-1">
          <mxGeometry x="620" y="342.5" width="180" height="115" as="geometry" />
        </mxCell>
        <mxCell id="RPCRJ4VFs7uq23GM1gfV-8" style="edgeStyle=orthogonalEdgeStyle;rounded=0;orthogonalLoop=1;jettySize=auto;html=1;exitX=0.75;exitY=1;exitDx=0;exitDy=0;strokeWidth=2;fontFamily=Helvetica;fontSize=13;" edge="1" parent="RPCRJ4VFs7uq23GM1gfV-1" source="RPCRJ4VFs7uq23GM1gfV-6" target="RPCRJ4VFs7uq23GM1gfV-7">
          <mxGeometry relative="1" as="geometry">
            <Array as="points">
              <mxPoint x="540" y="257.5" />
              <mxPoint x="540" y="300.5" />
              <mxPoint x="710" y="300.5" />
            </Array>
          </mxGeometry>
        </mxCell>
        <mxCell id="RPCRJ4VFs7uq23GM1gfV-9" value="&lt;p style=&quot;margin: 4px 0px 0px; font-size: 13px;&quot;&gt;&lt;i style=&quot;font-size: 13px;&quot;&gt;&amp;lt;&amp;lt;Interface&amp;gt;&amp;gt;&lt;/i&gt;&lt;br style=&quot;font-size: 13px;&quot;&gt;&lt;b style=&quot;font-size: 13px;&quot;&gt;List&lt;/b&gt;&lt;/p&gt;&lt;hr style=&quot;font-size: 13px;&quot;&gt;&lt;p style=&quot;text-align: left; margin: 0px 0px 0px 4px; font-size: 13px;&quot;&gt;&lt;/p&gt;&lt;p style=&quot;text-align: left; margin: 0px 0px 0px 4px; font-size: 13px;&quot;&gt;&lt;span style=&quot;color: rgb(50, 50, 50); font-family: arial; background-color: rgba(255, 255, 255, 0.01); font-size: 13px;&quot;&gt;存储元素的特点：有序可重复。&lt;/span&gt;&lt;span style=&quot;color: rgb(50, 50, 50); font-family: arial; font-size: 13px;&quot;&gt;存进去什么顺序，取出来的时候还是这个顺序取出。&lt;/span&gt;&lt;br style=&quot;font-size: 13px;&quot;&gt;&lt;/p&gt;" style="verticalAlign=middle;align=center;overflow=fill;fontSize=13;fontFamily=Helvetica;html=1;gradientDirection=north;shadow=0;glass=0;sketch=0;perimeterSpacing=0;strokeWidth=2;rounded=1;perimeter=rectanglePerimeter;fillColor=#fff2cc;arcSize=6;whiteSpace=wrap;" vertex="1" parent="RPCRJ4VFs7uq23GM1gfV-1">
          <mxGeometry x="220" y="342.5" width="180" height="115" as="geometry" />
        </mxCell>
        <mxCell id="RPCRJ4VFs7uq23GM1gfV-10" style="edgeStyle=orthogonalEdgeStyle;rounded=0;orthogonalLoop=1;jettySize=auto;html=1;exitX=0.25;exitY=1;exitDx=0;exitDy=0;strokeWidth=2;fontFamily=Helvetica;fontSize=13;" edge="1" parent="RPCRJ4VFs7uq23GM1gfV-1" source="RPCRJ4VFs7uq23GM1gfV-6" target="RPCRJ4VFs7uq23GM1gfV-9">
          <mxGeometry relative="1" as="geometry">
            <Array as="points">
              <mxPoint x="480" y="257.5" />
              <mxPoint x="480" y="300.5" />
              <mxPoint x="310" y="300.5" />
            </Array>
          </mxGeometry>
        </mxCell>
        <mxCell id="RPCRJ4VFs7uq23GM1gfV-11" value="" style="edgeStyle=orthogonalEdgeStyle;rounded=0;orthogonalLoop=1;jettySize=auto;html=1;strokeWidth=2;fontFamily=Helvetica;fontSize=13;" edge="1" parent="RPCRJ4VFs7uq23GM1gfV-1" source="RPCRJ4VFs7uq23GM1gfV-12" target="RPCRJ4VFs7uq23GM1gfV-7">
          <mxGeometry relative="1" as="geometry" />
        </mxCell>
        <mxCell id="RPCRJ4VFs7uq23GM1gfV-12" value="&lt;p style=&quot;margin: 4px 0px 0px ; font-size: 13px&quot;&gt;&lt;i style=&quot;font-size: 13px&quot;&gt;&amp;lt;&amp;lt;Interface&amp;gt;&amp;gt;&lt;/i&gt;&lt;br style=&quot;font-size: 13px&quot;&gt;&lt;b style=&quot;font-size: 13px&quot;&gt;SortedSet&lt;/b&gt;&lt;/p&gt;&lt;hr style=&quot;font-size: 13px&quot;&gt;&lt;p style=&quot;text-align: left ; margin: 0px 0px 0px 4px ; font-size: 13px&quot;&gt;&lt;/p&gt;&lt;p style=&quot;text-align: left ; margin: 0px 0px 0px 4px ; font-size: 13px&quot;&gt;&lt;span style=&quot;color: rgb(50 , 50 , 50) ; font-family: &amp;#34;arial&amp;#34; ; background-color: rgba(255 , 255 , 255 , 0.01)&quot;&gt;存储元素的特点：无序不可重复。但是元素存储进去的元素可以按照元素的大小自动排序。&lt;/span&gt;&lt;br&gt;&lt;/p&gt;" style="verticalAlign=middle;align=center;overflow=fill;fontSize=13;fontFamily=Helvetica;html=1;gradientDirection=north;shadow=0;glass=0;sketch=0;perimeterSpacing=0;strokeWidth=2;rounded=1;perimeter=rectanglePerimeter;fillColor=#fff2cc;arcSize=6;labelBorderColor=none;whiteSpace=wrap;spacingTop=0;spacing=2;spacingRight=0;spacingLeft=0;" vertex="1" parent="RPCRJ4VFs7uq23GM1gfV-1">
          <mxGeometry x="840" y="342.5" width="180" height="115" as="geometry" />
        </mxCell>
        <mxCell id="RPCRJ4VFs7uq23GM1gfV-13" style="edgeStyle=orthogonalEdgeStyle;rounded=0;orthogonalLoop=1;jettySize=auto;html=1;entryX=0.25;entryY=1;entryDx=0;entryDy=0;strokeWidth=2;fontFamily=Helvetica;fontSize=13;exitX=0.5;exitY=0;exitDx=0;exitDy=0;" edge="1" parent="RPCRJ4VFs7uq23GM1gfV-1" source="RPCRJ4VFs7uq23GM1gfV-14" target="RPCRJ4VFs7uq23GM1gfV-9">
          <mxGeometry relative="1" as="geometry">
            <mxPoint x="95" y="557.5" as="sourcePoint" />
          </mxGeometry>
        </mxCell>
        <mxCell id="RPCRJ4VFs7uq23GM1gfV-14" value="&lt;p style=&quot;margin: 4px 0px 0px ; font-size: 13px&quot;&gt;&lt;b style=&quot;font-size: 13px&quot;&gt;ArrayList&lt;/b&gt;&lt;/p&gt;&lt;hr style=&quot;font-size: 13px&quot;&gt;&lt;p style=&quot;text-align: left ; margin: 0px 0px 0px 4px ; font-size: 13px&quot;&gt;&lt;/p&gt;&lt;p style=&quot;text-align: left ; margin: 0px 0px 0px 4px ; font-size: 13px&quot;&gt;&lt;span style=&quot;color: rgb(50 , 50 , 50) ; font-family: &amp;#34;arial&amp;#34; ; background-color: rgba(255 , 255 , 255 , 0.01)&quot;&gt;ArrayList 底层采用的是数组存储元素的，所以 ArrayList 集合适合查询，不适合频繁的随机增删元素。&lt;/span&gt;&lt;br style=&quot;font-size: 13px&quot;&gt;&lt;/p&gt;" style="verticalAlign=middle;align=center;overflow=fill;fontSize=13;fontFamily=Helvetica;html=1;gradientDirection=north;shadow=0;glass=0;sketch=0;perimeterSpacing=0;strokeWidth=2;rounded=1;perimeter=rectanglePerimeter;fillColor=#fff2cc;arcSize=6;whiteSpace=wrap;" vertex="1" parent="RPCRJ4VFs7uq23GM1gfV-1">
          <mxGeometry x="20" y="537.5" width="180" height="100" as="geometry" />
        </mxCell>
        <mxCell id="RPCRJ4VFs7uq23GM1gfV-15" style="edgeStyle=orthogonalEdgeStyle;rounded=0;orthogonalLoop=1;jettySize=auto;html=1;exitX=0.5;exitY=0;exitDx=0;exitDy=0;entryX=0.75;entryY=1;entryDx=0;entryDy=0;strokeWidth=2;fontFamily=Helvetica;fontSize=13;" edge="1" parent="RPCRJ4VFs7uq23GM1gfV-1" source="RPCRJ4VFs7uq23GM1gfV-16" target="RPCRJ4VFs7uq23GM1gfV-9">
          <mxGeometry relative="1" as="geometry" />
        </mxCell>
        <mxCell id="RPCRJ4VFs7uq23GM1gfV-16" value="&lt;p style=&quot;margin: 4px 0px 0px ; font-size: 13px&quot;&gt;&lt;b&gt;Vector&lt;/b&gt;&lt;/p&gt;&lt;hr style=&quot;font-size: 13px&quot;&gt;&lt;p style=&quot;text-align: left ; margin: 0px 0px 0px 4px ; font-size: 13px&quot;&gt;&lt;/p&gt;&lt;p style=&quot;text-align: left ; margin: 0px 0px 0px 4px ; font-size: 13px&quot;&gt;&lt;span style=&quot;color: rgb(50 , 50 , 50) ; font-family: &amp;#34;arial&amp;#34; ; background-color: rgba(255 , 255 , 255 , 0.01)&quot;&gt;Vector 底层和 ArrayList 集合相同，但是 Vector 是线程安全的。效率较低，所以现在很少使用。&lt;/span&gt;&lt;br style=&quot;font-size: 13px&quot;&gt;&lt;/p&gt;" style="verticalAlign=middle;align=center;overflow=fill;fontSize=13;fontFamily=Helvetica;html=1;gradientDirection=north;shadow=0;glass=0;sketch=0;perimeterSpacing=0;strokeWidth=2;rounded=1;perimeter=rectanglePerimeter;fillColor=#fff2cc;arcSize=6;whiteSpace=wrap;" vertex="1" parent="RPCRJ4VFs7uq23GM1gfV-1">
          <mxGeometry x="410" y="537.5" width="180" height="100" as="geometry" />
        </mxCell>
        <mxCell id="RPCRJ4VFs7uq23GM1gfV-17" style="edgeStyle=orthogonalEdgeStyle;rounded=0;orthogonalLoop=1;jettySize=auto;html=1;exitX=0.5;exitY=0;exitDx=0;exitDy=0;entryX=0.5;entryY=1;entryDx=0;entryDy=0;strokeWidth=2;fontFamily=Helvetica;fontSize=13;" edge="1" parent="RPCRJ4VFs7uq23GM1gfV-1" source="RPCRJ4VFs7uq23GM1gfV-18" target="RPCRJ4VFs7uq23GM1gfV-7">
          <mxGeometry relative="1" as="geometry" />
        </mxCell>
        <mxCell id="RPCRJ4VFs7uq23GM1gfV-18" value="&lt;p style=&quot;margin: 4px 0px 0px ; font-size: 13px&quot;&gt;&lt;b&gt;HashSet&lt;/b&gt;&lt;/p&gt;&lt;hr style=&quot;font-size: 13px&quot;&gt;&lt;p style=&quot;text-align: left ; margin: 0px 0px 0px 4px ; font-size: 13px&quot;&gt;&lt;/p&gt;&lt;p style=&quot;text-align: left ; margin: 0px 0px 0px 4px ; font-size: 13px&quot;&gt;&lt;span style=&quot;color: rgb(50 , 50 , 50) ; font-family: &amp;#34;arial&amp;#34; ; background-color: rgba(255 , 255 , 255 , 0.01)&quot;&gt;底层是哈希表 / 散列表。&lt;/span&gt;&lt;br style=&quot;font-size: 13px&quot;&gt;&lt;/p&gt;" style="verticalAlign=middle;align=center;overflow=fill;fontSize=13;fontFamily=Helvetica;html=1;gradientDirection=north;shadow=0;glass=0;sketch=0;perimeterSpacing=0;strokeWidth=2;rounded=1;perimeter=rectanglePerimeter;fillColor=#fff2cc;arcSize=6;whiteSpace=wrap;" vertex="1" parent="RPCRJ4VFs7uq23GM1gfV-1">
          <mxGeometry x="620" y="537.5" width="180" height="100" as="geometry" />
        </mxCell>
        <mxCell id="RPCRJ4VFs7uq23GM1gfV-19" style="edgeStyle=orthogonalEdgeStyle;rounded=0;orthogonalLoop=1;jettySize=auto;html=1;exitX=0.5;exitY=0;exitDx=0;exitDy=0;entryX=0.5;entryY=1;entryDx=0;entryDy=0;strokeWidth=2;fontFamily=Helvetica;fontSize=13;" edge="1" parent="RPCRJ4VFs7uq23GM1gfV-1" source="RPCRJ4VFs7uq23GM1gfV-20" target="RPCRJ4VFs7uq23GM1gfV-12">
          <mxGeometry relative="1" as="geometry" />
        </mxCell>
        <mxCell id="RPCRJ4VFs7uq23GM1gfV-20" value="&lt;p style=&quot;margin: 4px 0px 0px ; font-size: 13px&quot;&gt;&lt;b&gt;TreeSet&lt;/b&gt;&lt;/p&gt;&lt;hr style=&quot;font-size: 13px&quot;&gt;&lt;p style=&quot;text-align: left ; margin: 0px 0px 0px 4px ; font-size: 13px&quot;&gt;&lt;/p&gt;&lt;p style=&quot;text-align: left ; margin: 0px 0px 0px 4px ; font-size: 13px&quot;&gt;&lt;span style=&quot;color: rgb(50 , 50 , 50) ; font-family: &amp;#34;arial&amp;#34; ; background-color: rgba(255 , 255 , 255 , 0.01)&quot;&gt;SortedSet 接口的唯一实现，支持自然排序和定制排序。&lt;/span&gt;&lt;br style=&quot;font-size: 13px&quot;&gt;&lt;/p&gt;" style="verticalAlign=middle;align=center;overflow=fill;fontSize=13;fontFamily=Helvetica;html=1;gradientDirection=north;shadow=0;glass=0;sketch=0;perimeterSpacing=0;strokeWidth=2;rounded=1;perimeter=rectanglePerimeter;fillColor=#fff2cc;arcSize=6;whiteSpace=wrap;" vertex="1" parent="RPCRJ4VFs7uq23GM1gfV-1">
          <mxGeometry x="840" y="537.5" width="180" height="100" as="geometry" />
        </mxCell>
        <mxCell id="RPCRJ4VFs7uq23GM1gfV-21" style="edgeStyle=orthogonalEdgeStyle;rounded=0;orthogonalLoop=1;jettySize=auto;html=1;exitX=0.5;exitY=0;exitDx=0;exitDy=0;entryX=0.5;entryY=1;entryDx=0;entryDy=0;strokeWidth=2;" edge="1" parent="RPCRJ4VFs7uq23GM1gfV-1" source="RPCRJ4VFs7uq23GM1gfV-22" target="RPCRJ4VFs7uq23GM1gfV-9">
          <mxGeometry relative="1" as="geometry" />
        </mxCell>
        <mxCell id="RPCRJ4VFs7uq23GM1gfV-22" value="&lt;p style=&quot;margin: 4px 0px 0px ; font-size: 13px&quot;&gt;&lt;b style=&quot;font-size: 13px&quot;&gt;LinkedList&lt;/b&gt;&lt;/p&gt;&lt;hr style=&quot;font-size: 13px&quot;&gt;&lt;p style=&quot;text-align: left ; margin: 0px 0px 0px 4px ; font-size: 13px&quot;&gt;&lt;/p&gt;&lt;p style=&quot;text-align: left ; margin: 0px 0px 0px 4px ; font-size: 13px&quot;&gt;&lt;span style=&quot;color: rgb(50 , 50 , 50) ; font-family: &amp;#34;arial&amp;#34; ; background-color: rgba(255 , 255 , 255 , 0.01)&quot;&gt;LinkedList 底层采用双向链表的数据结构存储数据，链表适合频繁的增删元素，不适合查询操作。&lt;/span&gt;&lt;br style=&quot;font-size: 13px&quot;&gt;&lt;/p&gt;" style="verticalAlign=middle;align=center;overflow=fill;fontSize=13;fontFamily=Helvetica;html=1;gradientDirection=north;shadow=0;glass=0;sketch=0;perimeterSpacing=0;strokeWidth=2;rounded=1;perimeter=rectanglePerimeter;fillColor=#fff2cc;arcSize=6;whiteSpace=wrap;" vertex="1" parent="RPCRJ4VFs7uq23GM1gfV-1">
          <mxGeometry x="220" y="537.5" width="180" height="100" as="geometry" />
        </mxCell>
      </root>
    </mxGraphModel>
  </diagram>
</mxfile>
